<svg width="532" height="532" viewBox="0 0 532 532" fill="none" xmlns="http://www.w3.org/2000/svg">
<path d="M266 532C412.908 532 532 412.908 532 266C532 119.092 412.908 0 266 0C119.092 0 0 119.092 0 266C0 412.908 119.092 532 266 532Z" fill="#E1EBEF"/>
<path d="M252.179 377.661H101.406C95.2968 377.661 90.3438 373.035 90.3438 367.318V57.1974C90.3438 51.4807 95.2968 46.855 101.406 46.855H252.179C258.289 46.855 263.242 51.4807 263.242 57.1974V367.296C263.242 373.013 258.289 377.661 252.179 377.661Z" fill="#2B216A"/>
<path d="M242.141 113.164H112.097C111.224 113.164 110.504 112.444 110.504 111.572V79.3877C110.504 78.515 111.224 77.7949 112.097 77.7949H242.141C243.014 77.7949 243.734 78.515 243.734 79.3877V111.572C243.712 112.444 243.014 113.164 242.141 113.164Z" fill="white" fill-opacity="0.2"/>
<path d="M160.513 100.138V103.978C160.513 104.851 159.793 105.571 158.921 105.571H158.812C157.939 105.571 157.219 104.851 157.219 103.978V88.2242C157.219 87.3514 157.939 86.6313 158.812 86.6313H164.463C166.579 86.6313 168.259 87.1768 169.503 88.2896C170.747 89.4024 171.38 90.8425 171.38 92.6535C171.38 94.5082 170.769 95.9483 169.547 96.9956C168.325 98.0211 166.623 98.5448 164.441 98.5448H162.106C161.212 98.5448 160.513 99.2648 160.513 100.138ZM160.513 94.3118C160.513 95.1846 161.234 95.9046 162.106 95.9046H164.485C165.663 95.9046 166.557 95.621 167.168 95.0755C167.779 94.53 168.085 93.7227 168.085 92.6972C168.085 91.6717 167.779 90.8643 167.147 90.2534C166.514 89.6424 165.663 89.337 164.572 89.3151H162.106C161.234 89.3151 160.513 90.0352 160.513 90.908V94.3118Z" fill="white"/>
<path d="M181.394 101.163H176.31C175.634 101.163 175.045 101.6 174.805 102.232L174.019 104.502C173.801 105.134 173.19 105.571 172.514 105.571C171.401 105.571 170.637 104.458 171.03 103.433L176.987 87.6788C177.227 87.0679 177.816 86.6533 178.471 86.6533H179.234C179.889 86.6533 180.478 87.0679 180.718 87.6788L186.675 103.433C187.068 104.48 186.304 105.571 185.191 105.571H185.169C184.493 105.571 183.904 105.156 183.664 104.502L182.856 102.211C182.66 101.578 182.071 101.163 181.394 101.163ZM178.34 98.5013H179.365C180.456 98.5013 181.22 97.4322 180.871 96.3848L180.369 94.9229C179.867 93.5046 177.881 93.5046 177.38 94.9229L176.878 96.3848C176.485 97.4322 177.249 98.5013 178.34 98.5013Z" fill="white"/>
<path d="M195.294 92.6754L197.781 87.5259C198.043 86.9805 198.61 86.6313 199.199 86.6313H199.221C200.421 86.6313 201.185 87.8969 200.618 88.966L195.686 98.2612C195.556 98.4793 195.512 98.7412 195.512 99.003V104C195.512 104.872 194.792 105.593 193.919 105.593H193.788C192.915 105.593 192.195 104.872 192.195 104V99.003C192.195 98.7412 192.13 98.4793 192.021 98.2612L187.09 88.9879C186.522 87.9405 187.286 86.6532 188.486 86.6532H188.508C189.119 86.6532 189.664 87.0023 189.926 87.5478L192.414 92.6972C193.024 93.8536 194.705 93.8536 195.294 92.6754Z" fill="white"/>
<path d="M225.931 184.798L134.049 184.776C130.754 184.776 128.07 182.18 128.07 178.994V153.814L132.674 146.679L128.07 138.628V130.904C128.07 127.718 130.754 125.122 134.049 125.122L225.931 125.143C229.226 125.143 231.909 127.74 231.909 130.926V138.65L227.611 145.436L231.909 153.836V179.016C231.909 182.201 229.226 184.798 225.931 184.798Z" fill="white"/>
<path d="M231.933 138.649H128.094V153.814H231.933V138.649Z" fill="#363E44"/>
<path d="M230.928 346.895H118.972C118.71 346.895 118.492 346.677 118.492 346.415V272.142C118.492 271.88 118.71 271.662 118.972 271.662C119.234 271.662 119.452 271.88 119.452 272.142V345.935H230.928C231.19 345.935 231.408 346.153 231.408 346.415C231.408 346.677 231.19 346.895 230.928 346.895Z" fill="white" fill-opacity="0.2"/>
<path d="M190.802 296.798C190.649 296.798 190.475 296.71 190.387 296.558C190.257 296.339 190.322 296.034 190.54 295.903L203.828 287.873C204.046 287.742 204.352 287.808 204.483 288.026C204.614 288.244 204.548 288.55 204.33 288.681L191.042 296.71C190.977 296.776 190.889 296.798 190.802 296.798Z" fill="white" fill-opacity="0.2"/>
<path d="M182.38 294.637C182.227 294.637 182.075 294.55 181.966 294.419L163.943 266.686C163.79 266.468 163.855 266.163 164.074 266.01C164.292 265.857 164.597 265.923 164.728 266.141L182.751 293.874C182.904 294.092 182.838 294.397 182.62 294.55C182.555 294.615 182.467 294.637 182.38 294.637Z" fill="white" fill-opacity="0.2"/>
<path d="M142.516 276.658C142.364 276.658 142.233 276.592 142.145 276.483C141.993 276.265 142.014 275.981 142.233 275.807L156.219 264.875C156.437 264.723 156.721 264.744 156.895 264.963C157.048 265.181 157.026 265.464 156.808 265.639L142.822 276.571C142.734 276.614 142.625 276.658 142.516 276.658Z" fill="white" fill-opacity="0.2"/>
<path d="M137.977 286.128C134.53 286.128 131.715 283.291 131.715 279.822C131.715 276.331 134.53 273.516 137.977 273.516C141.425 273.516 144.239 276.353 144.239 279.822C144.239 283.291 141.425 286.128 137.977 286.128ZM137.977 274.476C135.053 274.476 132.697 276.876 132.697 279.822C132.697 282.768 135.075 285.168 137.977 285.168C140.901 285.168 143.257 282.768 143.257 279.822C143.279 276.876 140.901 274.476 137.977 274.476Z" fill="white" fill-opacity="0.2"/>
<path d="M161.258 267.974C157.811 267.974 154.996 265.137 154.996 261.668C154.996 258.199 157.811 255.362 161.258 255.362C164.706 255.362 167.52 258.199 167.52 261.668C167.52 265.137 164.706 267.974 161.258 267.974ZM161.258 256.322C158.334 256.322 155.978 258.723 155.978 261.668C155.978 264.614 158.356 267.014 161.258 267.014C164.16 267.014 166.539 264.614 166.539 261.668C166.539 258.723 164.16 256.322 161.258 256.322Z" fill="white" fill-opacity="0.2"/>
<path d="M185.719 305.416C182.272 305.416 179.457 302.58 179.457 299.111C179.457 295.619 182.272 292.805 185.719 292.805C189.167 292.805 191.981 295.641 191.981 299.111C191.96 302.58 189.167 305.416 185.719 305.416ZM185.719 293.743C182.795 293.743 180.439 296.143 180.439 299.089C180.439 302.034 182.817 304.434 185.719 304.434C188.643 304.434 191 302.034 191 299.089C191 296.143 188.643 293.743 185.719 293.743Z" fill="white" fill-opacity="0.2"/>
<path d="M209.172 291.801C205.725 291.801 202.91 288.964 202.91 285.495C202.91 282.004 205.725 279.189 209.172 279.189C212.62 279.189 215.435 282.026 215.435 285.495C215.413 288.986 212.62 291.801 209.172 291.801ZM209.172 280.149C206.249 280.149 203.892 282.549 203.892 285.495C203.892 288.44 206.27 290.841 209.172 290.841C212.096 290.841 214.453 288.44 214.453 285.495C214.453 282.549 212.096 280.149 209.172 280.149Z" fill="white" fill-opacity="0.2"/>
<path d="M145.525 294.921H131.168V334.698H145.525V294.921Z" fill="white" fill-opacity="0.2"/>
<path d="M169.197 287H154.84V334.72H169.197V287Z" fill="white" fill-opacity="0.2"/>
<path d="M192.896 308.995H178.539V334.698H192.896V308.995Z" fill="white" fill-opacity="0.2"/>
<path d="M216.568 301.62H202.211V334.72H216.568V301.62Z" fill="white" fill-opacity="0.2"/>
</svg>
