<svg width="38" height="39" viewBox="0 0 38 39" fill="none" xmlns="http://www.w3.org/2000/svg">
<path d="M36.0095 8.80189V12.917C36.0095 15.6038 34.309 17.3043 31.6222 17.3043H25.8066V5.41795C25.8066 3.53043 27.3541 2 29.2416 2C31.0951 2.017 32.7956 2.76521 34.02 3.98955C35.2443 5.2309 36.0095 6.93137 36.0095 8.80189Z" stroke="#2B216A" stroke-width="3" stroke-miterlimit="10" stroke-linecap="round" stroke-linejoin="round"/>
<path d="M2 10.5024V34.309C2 35.7204 3.5984 36.5196 4.72072 35.6694L7.62856 33.4928C8.30875 32.9826 9.26103 33.0507 9.8732 33.6628L12.6959 36.5026C13.3591 37.1658 14.4475 37.1658 15.1107 36.5026L17.9675 33.6458C18.5626 33.0507 19.5149 32.9826 20.1781 33.4928L23.0859 35.6694C24.2082 36.5026 25.8066 35.7034 25.8066 34.309V5.40095C25.8066 3.53043 27.3371 2 29.2076 2H10.5024H8.80189C3.70047 2 2 5.04385 2 8.80189V10.5024Z" stroke="#2B216A" stroke-width="3" stroke-miterlimit="10" stroke-linecap="round" stroke-linejoin="round"/>
<path d="M8.80176 13.9033H19.0046" stroke="#35B7F3" stroke-width="3" stroke-linecap="round" stroke-linejoin="round"/>
<path d="M10.0771 20.7052H17.7293" stroke="#35B7F3" stroke-width="3" stroke-linecap="round" stroke-linejoin="round"/>
</svg>
