<svg width="40" height="30" viewBox="0 0 40 30" fill="none" xmlns="http://www.w3.org/2000/svg">
<g clip-path="url(#clip0_697_705)">
<path d="M13.2456 0L15.2193 3.02632C7.89474 6.97368 8.02632 13.3333 8.02632 14.693C8.68421 14.6053 9.38596 14.6053 10.0877 14.6491C14.0351 15 17.1491 18.2456 17.1491 22.2807C17.1491 26.5351 13.7281 29.9561 9.47368 29.9561C7.10526 29.9561 4.86842 28.9035 3.46491 27.3684C1.22807 25 0 22.3246 0 17.9386C0 10.2632 5.39474 3.42105 13.2456 0Z" fill="white"/>
<path d="M35.1755 0L37.1492 3.02632C29.8247 6.97368 29.9562 13.3333 29.9562 14.693C30.6141 14.6053 31.3159 14.6053 32.0177 14.6491C35.965 15 39.0791 18.2456 39.0791 22.2807C39.0791 26.5351 35.658 29.9561 31.4036 29.9561C29.0352 29.9561 26.7984 28.9035 25.3948 27.3684C23.158 25 21.9299 22.3246 21.9299 17.9386C21.9299 10.2632 27.3247 3.42105 35.1755 0Z" fill="white"/>
</g>
<defs>
<clipPath id="clip0_697_705">
<rect width="39.1228" height="30" fill="white"/>
</clipPath>
</defs>
</svg>
