<svg width="28" height="32" viewBox="0 0 28 32" fill="none" xmlns="http://www.w3.org/2000/svg">
<path d="M5.84439 27.5467C7.07424 26.2268 8.94901 26.3318 10.0289 27.7717L11.5437 29.7964C12.7585 31.4012 14.7233 31.4012 15.9381 29.7964L17.4529 27.7717C18.5328 26.3318 20.4076 26.2268 21.6374 27.5467C24.3071 30.3963 26.4818 29.4514 26.4818 25.4619V8.55905C26.4968 2.51481 25.087 1 19.4177 1H8.07912C2.40982 1 1 2.51481 1 8.55905V25.4469C1 29.4514 3.18973 30.3813 5.84439 27.5467Z" stroke="#2B216A" stroke-width="2" stroke-linecap="round" stroke-linejoin="round"/>
<path d="M7.48352 14.5H7.51047" stroke="#35B7F3" stroke-width="2" stroke-linecap="round" stroke-linejoin="round"/>
<path d="M12.0962 14.4985H20.3452" stroke="#35B7F3" stroke-width="2" stroke-linecap="round" stroke-linejoin="round"/>
<path d="M7.48352 8.24902H7.51047" stroke="#35B7F3" stroke-width="2" stroke-linecap="round" stroke-linejoin="round"/>
<path d="M12.0962 8.49902H20.3452" stroke="#35B7F3" stroke-width="2" stroke-linecap="round" stroke-linejoin="round"/>
</svg>
